<?xml version="1.0" standalone="no"?>
<!DOCTYPE svg PUBLIC "-//W3C//DTD SVG 20010904//EN"
 "http://www.w3.org/TR/2001/REC-SVG-20010904/DTD/svg10.dtd">
<svg version="1.0" xmlns="http://www.w3.org/2000/svg"
 width="128.000000pt" height="128.000000pt" viewBox="0 0 128.000000 128.000000"
 preserveAspectRatio="xMidYMid meet">

<g transform="translate(0.000000,128.000000) scale(0.100000,-0.100000)"
fill="#942F03" stroke="none">
<path d="M623 1254 c-8 -21 13 -42 28 -27 13 13 5 43 -11 43 -6 0 -13 -7 -17
-16z"/>
<path d="M313 1184 c-4 -11 23 -45 88 -110 51 -52 99 -94 107 -94 7 0 15 7 19
16 4 11 -23 45 -88 110 -51 52 -99 94 -107 94 -7 0 -15 -7 -19 -16z"/>
<path d="M841 1106 c-65 -65 -92 -99 -88 -110 4 -9 12 -16 19 -16 8 0 56 42
107 94 65 65 92 99 88 110 -4 9 -12 16 -19 16 -8 0 -56 -42 -107 -94z"/>
<path d="M620 1151 c-11 -21 -14 -129 -4 -155 8 -21 40 -21 48 0 3 9 6 43 6
75 0 60 -12 99 -30 99 -5 0 -14 -9 -20 -19z"/>
<path d="M228 993 c-54 -60 -228 -280 -228 -290 0 -6 30 -37 66 -69 37 -32 90
-90 119 -128 53 -70 53 -71 42 -113 -9 -35 -8 -45 7 -67 9 -15 28 -32 42 -38
16 -7 24 -19 24 -35 0 -29 42 -73 70 -73 13 0 20 -7 20 -20 0 -29 44 -70 75
-70 14 0 25 -4 25 -9 0 -5 12 -23 26 -40 20 -24 34 -31 62 -31 19 0 44 7 54
17 15 13 23 14 44 5 59 -27 134 5 134 58 0 13 7 20 20 20 27 0 70 43 70 70 0
13 7 20 20 20 27 0 70 43 70 70 0 13 7 20 20 20 12 0 33 12 47 26 22 22 25 32
20 71 -4 38 2 58 34 128 33 69 49 90 104 136 35 30 65 59 65 65 0 16 -219 298
-235 302 -7 2 -45 -17 -84 -42 l-71 -46 -92 0 c-62 0 -115 -7 -165 -21 l-73
-20 -71 20 c-39 11 -103 40 -144 65 -40 26 -77 46 -82 46 -5 0 -21 -12 -35
-27z m93 -64 l48 -30 -111 -135 -111 -134 -41 37 c-22 21 -40 41 -39 45 4 10
197 248 202 248 2 0 26 -14 52 -31z m809 -89 c98 -127 97 -122 28 -171 l-27
-20 -96 120 c-52 67 -95 124 -95 128 0 10 82 62 93 59 5 -1 48 -53 97 -116z
m-139 -96 l107 -136 -30 -67 c-17 -36 -32 -68 -34 -71 -3 -2 -69 60 -147 138
l-142 141 -81 7 -81 7 -43 -76 c-44 -77 -58 -91 -85 -81 -31 12 -26 43 24 131
l51 88 82 27 c64 20 105 26 178 27 l95 1 106 -136z m-519 118 c14 -6 9 -20
-38 -102 -29 -52 -54 -103 -54 -113 0 -33 29 -75 60 -85 53 -19 85 1 131 80
l41 70 57 -7 56 -6 153 -152 c125 -125 152 -156 150 -177 -2 -18 -10 -26 -28
-28 -20 -2 -43 16 -115 88 -90 91 -111 103 -122 74 -4 -11 22 -44 86 -108 73
-74 92 -98 89 -117 -2 -16 -11 -25 -27 -27 -18 -3 -40 12 -92 64 -64 64 -70
67 -85 52 -16 -16 -12 -22 50 -87 51 -52 67 -75 64 -93 -5 -40 -43 -35 -95 12
-41 39 -46 41 -61 26 -15 -15 -13 -19 27 -60 52 -53 55 -91 6 -91 -27 0 -30 3
-27 29 5 42 -16 85 -49 102 -18 9 -29 23 -29 35 0 34 -20 60 -56 75 -22 9 -34
21 -34 33 0 25 -46 61 -76 61 -16 0 -28 10 -38 29 -20 37 -65 54 -107 39 -16
-6 -32 -8 -35 -5 -18 17 -84 112 -84 120 0 9 10 22 149 190 72 87 88 97 133
79z m-108 -438 c22 -22 20 -34 -11 -66 -30 -31 -54 -36 -73 -13 -16 19 -5 50
27 75 31 24 37 25 57 4z m114 -93 c3 -16 -8 -35 -34 -62 -40 -41 -77 -51 -88
-23 -10 26 -7 32 31 74 42 48 85 53 91 11z m90 -90 c3 -16 -8 -35 -34 -62 -40
-41 -77 -51 -88 -23 -10 26 -7 32 31 74 42 48 85 53 91 11z m77 -102 c5 -15
-1 -29 -21 -50 -30 -31 -53 -36 -72 -17 -17 17 -15 32 9 62 26 33 74 36 84 5z"/>
</g>
</svg>
