<?xml version="1.0" standalone="no"?>
<!DOCTYPE svg PUBLIC "-//W3C//DTD SVG 20010904//EN"
 "http://www.w3.org/TR/2001/REC-SVG-20010904/DTD/svg10.dtd">
<svg version="1.0" xmlns="http://www.w3.org/2000/svg"
 width="128.000000pt" height="128.000000pt" viewBox="0 0 128.000000 128.000000"
 preserveAspectRatio="xMidYMid meet">

<g transform="translate(0.000000,128.000000) scale(0.100000,-0.100000)"
fill="#942F03" stroke="none">
<path d="M335 1216 c-79 -29 -208 -112 -213 -138 -4 -22 56 -116 113 -177 l45
-48 -25 -23 c-37 -35 -80 -108 -100 -169 -25 -78 -18 -207 17 -283 42 -91 165
-208 220 -208 30 0 20 24 -20 45 -31 17 -38 27 -43 60 -3 22 -11 56 -19 76
-12 34 -11 42 14 104 25 62 26 69 12 90 -9 13 -29 26 -45 30 -24 5 -37 19 -61
62 l-30 56 30 47 c16 25 40 56 54 69 l24 22 38 -19 c22 -11 54 -23 72 -27 l32
-7 -20 -28 c-35 -49 -43 -85 -30 -125 18 -54 50 -70 140 -70 l75 0 5 -112 c4
-87 9 -116 22 -129 39 -40 128 -1 162 70 13 28 15 50 10 96 l-7 60 41 40 c22
22 45 40 51 40 20 0 13 -143 -9 -204 -55 -145 -169 -228 -338 -244 -90 -9 -78
-27 19 -27 68 1 85 5 152 38 122 60 196 161 220 302 21 123 -21 246 -120 346
l-55 57 23 15 c28 20 44 12 98 -49 91 -103 136 -253 114 -380 -23 -131 -115
-269 -221 -331 -110 -65 -267 -82 -384 -42 -128 43 -215 122 -276 249 -32 66
-37 85 -42 179 -6 116 -23 147 -36 64 -19 -129 43 -301 146 -404 89 -89 229
-148 352 -149 219 -1 427 160 484 375 19 69 17 197 -2 267 -9 32 -15 60 -13
61 2 1 34 17 71 35 152 76 192 191 126 357 -29 72 -44 77 -124 41 -122 -56
-174 -125 -174 -230 l0 -57 -40 33 c-23 18 -61 63 -85 101 -25 37 -49 67 -54
67 -23 0 -20 -23 9 -66 18 -25 30 -47 28 -50 -5 -5 -146 20 -152 27 -16 19
-146 199 -146 202 0 8 81 -13 114 -29 17 -9 39 -23 48 -31 10 -9 25 -13 34 -9
16 6 16 8 0 25 -9 10 -40 31 -68 46 -75 41 -169 45 -263 11z m158 -107 c37
-51 66 -93 64 -95 -2 -2 -31 2 -65 8 -61 11 -63 13 -113 81 -27 38 -49 71 -47
73 2 1 15 7 28 13 53 21 64 15 133 -80z m-161 -1 c21 -28 36 -53 34 -55 -9 -9
-186 30 -180 39 6 10 95 68 104 68 3 -1 22 -24 42 -52z m761 -47 c-20 -50 -40
-88 -44 -84 -4 5 -17 32 -28 60 l-20 52 42 25 c64 36 82 45 85 42 1 -2 -14
-44 -35 -95z m96 25 c19 -75 16 -81 -41 -105 -28 -12 -52 -20 -54 -19 -5 6 70
177 76 173 4 -3 13 -25 19 -49z m-914 -57 c39 -6 74 -15 78 -19 5 -4 -15 -25
-44 -46 l-52 -38 -26 31 c-14 17 -34 46 -45 63 -18 31 -18 32 0 26 11 -3 51
-10 89 -17z m754 -109 c0 -8 -11 -40 -24 -70 l-23 -55 -11 29 c-33 84 -36 160
-8 211 9 18 13 14 38 -40 15 -33 28 -67 28 -75z m-516 63 c20 -3 37 -9 37 -14
0 -9 -164 -129 -177 -129 -13 0 -83 50 -83 59 0 5 28 30 63 55 50 37 68 45 92
41 17 -3 47 -8 68 -12z m178 -34 c38 -7 69 -15 69 -19 0 -10 -86 -65 -132 -85
-59 -24 -136 -38 -175 -30 l-36 6 94 70 c52 38 98 69 102 69 5 0 39 -5 78 -11z
m509 1 c0 -20 -28 -65 -57 -92 -32 -30 -111 -73 -119 -65 -3 3 7 31 23 63 25
53 33 61 83 81 64 26 70 27 70 13z m-413 -132 c50 -46 103 -122 103 -148 0 -9
-13 -23 -29 -33 -16 -9 -41 -31 -55 -48 -23 -27 -26 -39 -26 -109 0 -77 -1
-80 -35 -115 -36 -35 -72 -46 -80 -22 -6 16 -14 110 -14 174 -1 75 -15 85
-106 77 -65 -6 -75 -4 -94 15 -23 23 -27 64 -8 98 20 36 61 62 143 88 44 13
93 34 109 45 17 11 33 20 38 20 4 0 28 -19 54 -42z m-573 -222 c19 -32 34 -46
56 -51 16 -4 33 -11 36 -17 3 -5 -6 -39 -21 -74 -26 -62 -27 -65 -11 -104 9
-22 16 -48 16 -57 0 -14 -4 -13 -24 6 -62 58 -104 188 -92 285 4 31 9 56 11
56 2 0 15 -20 29 -44z"/>
</g>
</svg>
