<?xml version="1.0" standalone="no"?>
<!DOCTYPE svg PUBLIC "-//W3C//DTD SVG 20010904//EN"
 "http://www.w3.org/TR/2001/REC-SVG-20010904/DTD/svg10.dtd">
<svg version="1.0" xmlns="http://www.w3.org/2000/svg"
 width="128.000000pt" height="128.000000pt" viewBox="0 0 128.000000 128.000000"
 preserveAspectRatio="xMidYMid meet">

<g transform="translate(0.000000,128.000000) scale(0.100000,-0.100000)"
fill="#942F03" stroke="none">
<path d="M529 1262 c-14 -12 -24 -34 -28 -61 -6 -41 -8 -43 -69 -67 l-62 -26
-31 26 c-49 42 -73 35 -151 -42 -77 -78 -84 -102 -42 -151 l26 -31 -26 -62
c-24 -61 -26 -63 -67 -69 -65 -9 -79 -33 -79 -139 0 -106 14 -130 79 -139 41
-6 43 -8 67 -69 l26 -62 -26 -31 c-42 -49 -35 -73 42 -151 78 -77 102 -84 151
-42 l31 26 62 -26 c61 -24 63 -26 69 -67 9 -65 33 -79 139 -79 106 0 130 14
139 79 6 41 8 43 69 67 l62 26 31 -26 c49 -42 73 -35 151 42 77 78 84 102 42
151 l-26 31 26 62 c24 61 26 63 67 69 65 9 79 33 79 139 0 106 -14 130 -79
139 -41 6 -43 8 -67 69 l-26 62 26 31 c42 49 35 73 -42 151 -78 77 -102 84
-151 42 l-31 -26 -62 26 c-61 24 -63 26 -69 67 -9 65 -33 79 -139 79 -70 0
-92 -4 -111 -18z m201 -86 c3 -30 11 -52 20 -56 8 -4 50 -22 93 -40 l78 -33
33 32 c17 17 36 31 41 31 13 0 115 -102 115 -114 0 -6 -14 -25 -31 -42 l-32
-33 33 -78 c18 -43 36 -85 40 -93 4 -9 26 -17 56 -20 l49 -5 0 -85 0 -85 -49
-5 c-30 -3 -52 -11 -56 -20 -4 -8 -22 -50 -40 -93 l-33 -78 32 -33 c17 -17 31
-36 31 -41 0 -13 -102 -115 -114 -115 -6 0 -25 14 -42 31 l-33 32 -78 -33
c-43 -18 -85 -36 -93 -40 -9 -4 -17 -26 -20 -56 l-5 -49 -85 0 -85 0 -5 49
c-3 30 -11 52 -20 56 -8 4 -50 22 -93 40 l-78 33 -33 -32 c-17 -17 -36 -31
-41 -31 -13 0 -115 102 -115 114 0 6 14 25 31 42 l32 33 -33 78 c-18 43 -36
85 -40 93 -4 9 -26 17 -56 20 l-49 5 0 85 0 85 49 5 c30 3 52 11 56 20 4 8 22
50 40 93 l33 78 -32 33 c-17 17 -31 36 -31 41 0 13 102 115 114 115 6 0 25
-14 42 -31 l33 -32 78 33 c43 18 85 36 93 40 9 4 16 24 18 46 5 66 4 65 94 62
l83 -3 5 -49z"/>
<path d="M551 1031 c-56 -15 -111 -43 -111 -58 0 -24 26 -25 91 -2 49 16 79
20 132 16 227 -16 380 -242 308 -456 -12 -35 -20 -70 -17 -77 11 -28 34 -12
57 39 19 42 23 70 24 148 0 90 -2 99 -37 171 -68 136 -188 217 -336 224 -42 2
-92 -1 -111 -5z"/>
<path d="M354 915 c-4 -9 -2 -21 4 -27 15 -15 44 -1 40 19 -4 23 -36 29 -44 8z"/>
<path d="M269 788 c-19 -43 -23 -71 -24 -149 0 -90 2 -99 37 -171 45 -91 103
-147 196 -191 61 -29 76 -32 162 -32 77 1 105 5 148 24 50 23 66 46 38 57 -7
3 -42 -5 -77 -17 -268 -90 -530 172 -440 440 12 35 20 70 17 77 -11 28 -34 12
-57 -38z"/>
<path d="M676 741 l-81 -80 -43 41 c-38 35 -48 39 -75 34 -41 -8 -65 -33 -73
-73 -6 -31 -1 -38 77 -118 117 -120 117 -120 271 33 135 134 147 158 103 210
-21 25 -35 32 -62 32 -31 0 -46 -11 -117 -79z m142 17 c7 -7 12 -16 12 -21 0
-17 -213 -227 -230 -227 -25 0 -152 133 -145 152 13 34 37 29 86 -17 26 -25
52 -45 56 -45 5 0 46 38 93 85 84 84 105 96 128 73z"/>
<path d="M884 385 c-4 -9 -2 -21 4 -27 15 -15 44 -1 40 19 -4 23 -36 29 -44 8z"/>
</g>
</svg>
